<svg xmlns="http://www.w3.org/2000/svg" xmlns:xlink="http://www.w3.org/1999/xlink">
  <defs>
    <symbol viewBox="0 0 32 32" id="settingsOutline" >
      <path d="m16,3c.17,0,.36,0,.55.02.53.04.95.48.95,1v1.31c0,.99.63,1.87,1.6,2.22.22.07.45.17.69.28.32.16.68.25,1.04.25.61,0,1.22-.25,1.65-.68l.94-.94c.25-.25.54-.28.69-.28.26,0,.51.1.71.28l.02.02.02.02c.11.1.22.21.33.31.11.11.21.21.31.33l.02.02.02.02c.38.41.37,1.02,0,1.4l-.94.94c-.71.71-.88,1.81-.44,2.69.12.24.21.47.3.73.33.93,1.22,1.56,2.2,1.56h1.32c.54,0,.98.43,1,1,0,.17,0,.33,0,.5s0,.33,0,.53c-.02.55-.46.97-1,.97h-1.32c-.99,0-1.87.63-2.22,1.6-.07.22-.17.45-.28.69-.45.89-.27,1.99.44,2.69l.94.94c.38.38.38.99,0,1.4l-.02.02-.02.02c-.1.11-.21.22-.31.33-.11.11-.21.21-.32.31l-.02.02-.02.02c-.19.18-.45.28-.71.28-.15,0-.44-.04-.69-.28l-.94-.94c-.43-.43-1.04-.68-1.65-.68-.36,0-.72.09-1.04.25-.24.12-.47.21-.73.3-.93.33-1.56,1.22-1.56,2.2v1.32c0,.54-.43.98-1,1-.14,0-.28,0-.42,0-.03,0-.06,0-.08,0-.02,0-.05,0-.07,0-.14,0-.29,0-.45,0-.55-.02-.97-.46-.97-1v-1.32c0-.99-.63-1.87-1.6-2.22-.22-.07-.45-.17-.69-.28-.32-.16-.68-.25-1.04-.25-.61,0-1.22.25-1.65.68l-.94.94c-.25.25-.54.28-.69.28-.26,0-.51-.1-.71-.28l-.02-.02-.02-.02c-.11-.1-.22-.21-.33-.31-.11-.11-.21-.21-.31-.33l-.02-.02-.02-.02c-.38-.41-.37-1.02,0-1.4l.94-.94c.71-.71.88-1.81.44-2.69-.12-.24-.21-.47-.3-.73-.33-.93-1.22-1.56-2.2-1.56h-1.32c-.54,0-.98-.43-1-1,0-.17,0-.33,0-.5s0-.33,0-.53c.02-.55.46-.97,1-.97h1.32c.99,0,1.87-.63,2.22-1.6.07-.22.17-.45.28-.69.45-.89.27-1.99-.44-2.69l-.94-.94c-.38-.38-.38-.99,0-1.4l.02-.02.02-.02c.1-.11.21-.22.31-.33.11-.11.21-.21.32-.31l.02-.02.02-.02c.19-.18.45-.28.71-.28.15,0,.44.04.69.28l.94.94c.43.43,1.04.68,1.65.68.36,0,.72-.09,1.04-.25.24-.12.47-.21.73-.3.93-.33,1.56-1.22,1.56-2.2v-1.31c0-.51.42-.95.93-1,.2-.02.4-.02.57-.02m0,20.88c4.35,0,7.88-3.53,7.88-7.88s-3.53-7.88-7.88-7.88-7.88,3.53-7.88,7.88,3.53,7.88,7.88,7.88m0-22.88c-.21,0-.46.01-.72.03-1.56.13-2.78,1.42-2.78,2.99v1.31c0,.14-.09.27-.23.32-.33.11-.64.24-.95.39-.05.03-.1.04-.15.04-.09,0-.17-.04-.24-.1l-.94-.94c-.58-.58-1.34-.87-2.11-.87-.74,0-1.48.27-2.06.81-.15.13-.29.27-.43.41-.14.14-.28.28-.41.43-1.1,1.19-1.08,3.03.06,4.17l.94.94c.1.1.13.26.06.39-.15.31-.28.62-.39.95-.05.14-.18.23-.32.23h-1.32c-1.62,0-2.94,1.29-3,2.9-.01.2-.01.4-.01.6s0,.4.01.6c.06,1.61,1.38,2.9,3,2.9h1.32c.14,0,.27.09.32.23.11.33.24.64.39.95.07.13.04.29-.06.39l-.94.94c-1.14,1.14-1.16,2.98-.06,4.17.13.15.27.29.41.43.14.14.28.28.43.41.58.54,1.33.81,2.06.81s1.53-.29,2.11-.87l.94-.94c.06-.06.15-.1.24-.1.05,0,.1.01.15.04.31.15.62.28.95.39.14.05.23.18.23.32v1.32c0,1.62,1.29,2.94,2.9,3,.2.01.4.01.6.01s.4,0,.6-.01c1.61-.06,2.9-1.38,2.9-3v-1.32c0-.14.09-.27.23-.32.33-.11.64-.24.95-.39.05-.03.1-.04.15-.04.09,0,.17.04.24.1l.94.94c.58.58,1.34.87,2.11.87s1.48-.27,2.06-.81c.15-.13.29-.27.43-.41.14-.14.28-.28.41-.43,1.1-1.19,1.08-3.03-.06-4.17l-.94-.94c-.1-.1-.13-.26-.06-.39.15-.31.28-.62.39-.95.05-.14.18-.23.32-.23h1.32c1.62,0,2.94-1.29,3-2.9.01-.2.01-.4.01-.6s0-.4-.01-.6c-.06-1.61-1.38-2.9-3-2.9h-1.32c-.14,0-.27-.09-.32-.23-.11-.33-.24-.64-.39-.95-.07-.13-.04-.29.06-.39l.94-.94c1.14-1.14,1.16-2.98.06-4.17-.13-.15-.27-.29-.41-.43-.14-.14-.28-.28-.43-.41-.58-.54-1.33-.81-2.06-.81-.76,0-1.53.29-2.11.87l-.94.94c-.06.06-.15.1-.24.1-.05,0-.1-.01-.15-.04-.31-.15-.62-.28-.95-.39-.14-.05-.23-.18-.23-.32v-1.31c0-1.57-1.22-2.86-2.78-2.99-.26-.02-.51-.03-.72-.03h0Zm0,20.88c-3.24,0-5.88-2.64-5.88-5.88s2.64-5.88,5.88-5.88,5.88,2.64,5.88,5.88-2.64,5.88-5.88,5.88h0Z" />
    </symbol>
    <symbol viewBox="0 0 32 32" id="settingsFill" >
      <path d="m15.96,30c-.17,0-.34,0-.51,0-1.1-.04-1.95-.92-1.95-2v-1.32c0-.56-.36-1.07-.89-1.26-.3-.1-.57-.21-.85-.35-.15-.08-.37-.14-.59-.14-.35,0-.69.14-.94.39l-.94.94c-.37.37-.87.58-1.4.58s-1-.19-1.38-.54c-.15-.13-.27-.25-.39-.37-.14-.14-.26-.26-.37-.39-.76-.83-.75-2.05.01-2.81l.94-.94c.41-.42.51-1.06.23-1.57-.11-.23-.23-.5-.32-.79-.2-.55-.7-.91-1.27-.91h-1.32c-1.08,0-1.96-.85-2-1.94,0-.2,0-.38,0-.56s0-.37,0-.55c.04-1.1.92-1.95,2-1.95h1.32c.56,0,1.07-.36,1.26-.9.1-.31.22-.58.35-.85.26-.47.16-1.12-.25-1.53l-.94-.94c-.76-.76-.77-1.98-.03-2.78.14-.16.26-.28.38-.4.13-.13.25-.25.38-.36.4-.37.9-.57,1.41-.57s1.03.21,1.4.58l.94.94c.25.25.59.39.94.39.22,0,.43-.05.63-.16.23-.11.5-.23.79-.32.55-.2.91-.7.91-1.27v-1.31c0-1.03.82-1.91,1.86-1.99.23-.02.45-.03.64-.03s.41,0,.64.03c1.04.09,1.86.96,1.86,1.99v1.31c0,.57.36,1.07.9,1.26.3.1.58.22.85.35.15.08.37.14.59.14.35,0,.7-.14.94-.39l.94-.94c.37-.37.87-.58,1.4-.58s1,.19,1.38.54c.15.13.27.25.38.37.14.14.26.26.38.4.76.83.75,2.05-.01,2.81l-.94.94c-.41.41-.51,1.06-.23,1.57.12.25.23.52.32.79.2.56.71.92,1.27.92h1.32c1.08,0,1.96.85,2,1.94,0,.2,0,.38,0,.56s0,.37,0,.55c-.04,1.1-.92,1.95-2,1.95h-1.32c-.56,0-1.07.36-1.26.89-.1.3-.21.57-.35.85-.26.47-.16,1.12.25,1.53l.94.94c.76.76.77,1.98.03,2.78-.13.15-.25.27-.37.39-.15.15-.27.27-.39.38-.41.37-.9.57-1.41.57s-1.03-.21-1.4-.58l-.94-.94c-.25-.25-.6-.39-.95-.39-.22,0-.44.05-.63.16-.25.12-.52.23-.79.32-.56.2-.92.71-.92,1.27v1.32c0,1.08-.85,1.96-1.94,2-.18,0-.35,0-.52,0h-.09Zm.04-20.88c-3.79,0-6.88,3.09-6.88,6.88s3.09,6.88,6.88,6.88,6.88-3.09,6.88-6.88-3.09-6.88-6.88-6.88Z" />
      <path d="m16,3c.17,0,.36,0,.55.02.53.04.95.48.95,1v1.31c0,.99.63,1.87,1.6,2.22.22.07.45.17.69.28.32.16.68.25,1.04.25.61,0,1.22-.25,1.65-.68l.94-.94c.25-.25.54-.28.69-.28.26,0,.51.1.71.28l.02.02.02.02c.11.1.22.21.33.31.11.11.21.21.31.33l.02.02.02.02c.38.41.37,1.02,0,1.4l-.94.94c-.71.71-.88,1.81-.44,2.69.12.24.21.47.3.73.33.93,1.22,1.56,2.2,1.56h1.32c.54,0,.98.43,1,1,0,.17,0,.33,0,.5s0,.33,0,.53c-.02.55-.46.97-1,.97h-1.32c-.99,0-1.87.63-2.22,1.6-.07.22-.17.45-.28.69-.45.89-.27,1.99.44,2.69l.94.94c.38.38.38.99,0,1.4l-.02.02-.02.02c-.1.11-.21.22-.31.33-.11.11-.21.21-.32.31l-.02.02-.02.02c-.19.18-.45.28-.71.28-.15,0-.44-.04-.69-.28l-.94-.94c-.43-.43-1.04-.68-1.65-.68-.36,0-.72.09-1.04.25-.24.12-.47.21-.73.3-.93.33-1.56,1.22-1.56,2.2v1.32c0,.54-.43.98-1,1-.14,0-.28,0-.42,0-.03,0-.06,0-.08,0-.02,0-.05,0-.07,0-.14,0-.29,0-.45,0-.55-.02-.97-.46-.97-1v-1.32c0-.99-.63-1.87-1.6-2.22-.22-.07-.45-.17-.69-.28-.32-.16-.68-.25-1.04-.25-.61,0-1.22.25-1.65.68l-.94.94c-.25.25-.54.28-.69.28-.26,0-.51-.1-.71-.28l-.02-.02-.02-.02c-.11-.1-.22-.21-.33-.31-.11-.11-.21-.21-.31-.33l-.02-.02-.02-.02c-.38-.41-.37-1.02,0-1.4l.94-.94c.71-.71.88-1.81.44-2.69-.12-.24-.21-.47-.3-.73-.33-.93-1.22-1.56-2.2-1.56h-1.32c-.54,0-.98-.43-1-1,0-.17,0-.33,0-.5s0-.33,0-.53c.02-.55.46-.97,1-.97h1.32c.99,0,1.87-.63,2.22-1.6.07-.22.17-.45.28-.69.45-.89.27-1.99-.44-2.69l-.94-.94c-.38-.38-.38-.99,0-1.4l.02-.02.02-.02c.1-.11.21-.22.31-.33.11-.11.21-.21.32-.31l.02-.02.02-.02c.19-.18.45-.28.71-.28.15,0,.44.04.69.28l.94.94c.43.43,1.04.68,1.65.68.36,0,.72-.09,1.04-.25.24-.12.47-.21.73-.3.93-.33,1.56-1.22,1.56-2.2v-1.31c0-.51.42-.95.93-1,.2-.02.4-.02.57-.02m0,20.88c4.35,0,7.88-3.53,7.88-7.88s-3.53-7.88-7.88-7.88-7.88,3.53-7.88,7.88,3.53,7.88,7.88,7.88m0-22.88c-.21,0-.46.01-.72.03-1.56.13-2.78,1.42-2.78,2.99v1.31c0,.14-.09.27-.23.32-.33.11-.64.24-.95.39-.05.03-.1.04-.15.04-.09,0-.17-.04-.24-.1l-.94-.94c-.58-.58-1.34-.87-2.11-.87-.74,0-1.48.27-2.06.81-.15.13-.29.27-.43.41-.14.14-.28.28-.41.43-1.1,1.19-1.08,3.03.06,4.17l.94.94c.1.1.13.26.06.39-.15.31-.28.62-.39.95-.05.14-.18.23-.32.23h-1.32c-1.62,0-2.94,1.29-3,2.9-.01.2-.01.4-.01.6s0,.4.01.6c.06,1.61,1.38,2.9,3,2.9h1.32c.14,0,.27.09.32.23.11.33.24.64.39.95.07.13.04.29-.06.39l-.94.94c-1.14,1.14-1.16,2.98-.06,4.17.13.15.27.29.41.43.14.14.28.28.43.41.58.54,1.33.81,2.06.81s1.53-.29,2.11-.87l.94-.94c.06-.06.15-.1.24-.1.05,0,.1.01.15.04.31.15.62.28.95.39.14.05.23.18.23.32v1.32c0,1.62,1.29,2.94,2.9,3,.2.01.4.01.6.01s.4,0,.6-.01c1.61-.06,2.9-1.38,2.9-3v-1.32c0-.14.09-.27.23-.32.33-.11.64-.24.95-.39.05-.03.1-.04.15-.04.09,0,.17.04.24.1l.94.94c.58.58,1.34.87,2.11.87s1.48-.27,2.06-.81c.15-.13.29-.27.43-.41.14-.14.28-.28.41-.43,1.1-1.19,1.08-3.03-.06-4.17l-.94-.94c-.1-.1-.13-.26-.06-.39.15-.31.28-.62.39-.95.05-.14.18-.23.32-.23h1.32c1.62,0,2.94-1.29,3-2.9.01-.2.01-.4.01-.6s0-.4-.01-.6c-.06-1.61-1.38-2.9-3-2.9h-1.32c-.14,0-.27-.09-.32-.23-.11-.33-.24-.64-.39-.95-.07-.13-.04-.29.06-.39l.94-.94c1.14-1.14,1.16-2.98.06-4.17-.13-.15-.27-.29-.41-.43-.14-.14-.28-.28-.43-.41-.58-.54-1.33-.81-2.06-.81-.76,0-1.53.29-2.11.87l-.94.94c-.06.06-.15.1-.24.1-.05,0-.1-.01-.15-.04-.31-.15-.62-.28-.95-.39-.14-.05-.23-.18-.23-.32v-1.31c0-1.57-1.22-2.86-2.78-2.99-.26-.02-.51-.03-.72-.03h0Zm0,20.88c-3.24,0-5.88-2.64-5.88-5.88s2.64-5.88,5.88-5.88,5.88,2.64,5.88,5.88-2.64,5.88-5.88,5.88h0Z" />
    </symbol>
  </defs>
</svg>